<?xml version="1.0" standalone="no"?>
<!DOCTYPE svg PUBLIC "-//W3C//DTD SVG 20010904//EN"
 "http://www.w3.org/TR/2001/REC-SVG-20010904/DTD/svg10.dtd">
<svg version="1.0" xmlns="http://www.w3.org/2000/svg"
 width="520.000000pt" height="520.000000pt" viewBox="0 0 520.000000 520.000000"
 preserveAspectRatio="xMidYMid meet">
<metadata>
Created by potrace 1.11, written by Peter Selinger 2001-2013
</metadata>
<g transform="translate(0.000000,520.000000) scale(0.100000,-0.100000)"
fill="#000000" stroke="none">
<path d="M2750 4976 c-5 -14 -16 -26 -24 -26 -9 0 -75 -60 -148 -133 -137
-137 -264 -234 -292 -224 -9 4 -16 18 -16 34 -1 55 -54 258 -71 268 -5 4 -57
-39 -115 -94 -97 -92 -189 -160 -404 -295 -178 -111 -380 -311 -455 -451 -39
-71 -64 -74 -94 -11 -11 25 -25 47 -30 51 -14 8 -33 -32 -79 -170 -83 -249
-112 -365 -112 -448 0 -95 53 -440 100 -652 30 -135 45 -205 79 -370 43 -213
50 -244 69 -299 13 -38 14 -50 5 -53 -10 -3 -10 -10 -2 -24 5 -11 9 -49 7 -86
l-3 -66 -28 69 c-16 38 -30 81 -30 97 -2 34 -15 30 -45 -13 -29 -43 -30 -155
-2 -275 11 -47 20 -99 20 -115 0 -17 4 -30 9 -30 6 0 8 19 5 43 -3 30 -2 38 6
27 5 -8 10 -27 10 -42 0 -14 4 -28 9 -30 5 -2 13 -36 17 -77 5 -58 4 -72 -6
-66 -17 11 -4 -66 22 -125 24 -53 45 -79 73 -90 15 -6 26 -30 44 -95 56 -206
173 -374 408 -586 265 -241 400 -340 518 -380 66 -23 84 -24 300 -24 157 0
247 4 285 13 132 32 211 65 302 125 191 127 547 450 655 595 66 89 170 287
208 397 35 100 49 114 112 108 42 -5 53 -1 81 22 36 30 76 107 69 133 -3 12
-5 10 -6 -5 0 -13 -5 -23 -11 -23 -5 0 -10 -8 -10 -17 0 -9 -3 -14 -6 -10 -3
3 -19 -10 -36 -28 -35 -40 -63 -51 -84 -34 -22 18 -11 80 26 146 17 29 30 61
30 72 0 11 4 22 9 25 8 5 22 82 37 205 8 71 27 114 56 129 48 24 53 21 60 -43
4 -42 5 -27 3 47 -3 115 -22 175 -68 214 -18 16 -20 16 -8 1 12 -15 9 -23 -31
-65 -24 -26 -59 -73 -78 -104 -19 -32 -38 -58 -41 -58 -13 0 -29 62 -29 108 0
36 6 52 26 73 19 20 27 40 29 71 34 534 32 1004 -6 1173 -44 198 -241 539
-458 793 -25 28 -48 52 -52 52 -4 0 -4 -47 -1 -105 2 -58 2 -105 -2 -105 -22
0 -153 136 -194 202 -75 119 -230 332 -268 369 -43 42 -50 34 -59 -71 -3 -41
-9 -83 -13 -93 -9 -23 -12 -19 -77 138 -54 132 -156 327 -173 333 -6 2 -16 -8
-22 -22z m322 -1386 c128 -25 297 -73 351 -100 61 -30 110 -77 104 -101 -3
-10 -1 -19 4 -19 5 0 9 -9 9 -19 0 -11 4 -22 9 -25 5 -3 7 -24 4 -46 -4 -26
-2 -40 6 -40 8 0 11 -39 11 -125 0 -93 3 -125 13 -125 8 0 7 -4 -3 -11 -9 -6
-11 -12 -4 -15 5 -2 9 -19 8 -37 -3 -31 9 -84 27 -119 5 -9 6 -68 3 -130 -5
-88 -2 -133 12 -198 10 -47 19 -105 21 -130 1 -25 4 -56 7 -70 13 -77 37 -207
41 -220 13 -43 37 -400 30 -440 -1 -8 -6 -39 -10 -67 -4 -29 -11 -53 -16 -53
-5 0 -9 -8 -9 -17 0 -26 -47 -123 -60 -123 -5 0 -10 -7 -10 -15 0 -8 -4 -15
-10 -15 -5 0 -10 -5 -10 -10 0 -9 -17 -30 -65 -84 -5 -6 -17 -24 -25 -39 -8
-16 -23 -39 -35 -51 -20 -22 -38 -53 -103 -181 -20 -38 -43 -77 -51 -86 -28
-29 -51 -59 -45 -59 6 0 -42 -64 -75 -99 -13 -15 -34 -42 -48 -61 -53 -77
-121 -166 -165 -215 -119 -133 -499 -171 -736 -73 -39 16 -81 41 -91 54 -10
13 -23 24 -27 24 -11 0 -94 77 -94 86 0 4 -21 31 -47 61 -27 30 -58 68 -69 84
-12 17 -61 72 -110 123 -102 108 -101 106 -133 166 -25 46 -140 202 -153 208
-5 2 -8 9 -8 15 0 6 -11 22 -24 36 -40 44 -96 156 -117 238 -17 68 -19 96 -13
218 4 91 12 150 21 169 14 28 14 38 -2 161 -4 31 -3 37 7 27 20 -20 25 -15 37
34 32 125 133 225 250 248 l33 6 -50 -48 c-38 -36 -54 -60 -66 -101 -20 -67
-20 -75 0 -140 10 -34 30 -69 56 -98 l42 -44 65 6 c98 9 121 15 121 30 0 22
52 65 77 65 29 0 29 -17 1 -47 -12 -13 -18 -26 -15 -30 10 -9 46 26 73 73 39
66 42 133 8 219 -16 42 44 -26 76 -87 27 -51 32 -68 28 -109 -3 -27 -1 -49 4
-49 5 0 18 -16 29 -35 18 -29 24 -33 40 -25 24 14 55 74 63 126 10 56 -21 285
-45 342 -11 26 -22 60 -23 77 -5 50 -42 100 -94 126 -46 23 -47 25 -47 70 0
62 -19 82 -108 107 -120 35 -203 45 -327 39 -63 -3 -110 -3 -104 -1 6 3 9 18
6 34 -2 16 -8 28 -12 25 -10 -6 -22 64 -24 129 -1 51 13 159 22 166 4 3 8 19
9 35 1 17 9 59 18 95 17 70 23 98 24 117 1 15 40 32 181 81 l105 36 205 -3
c232 -3 374 8 570 45 155 28 295 51 327 53 12 0 68 -8 125 -19z m-1439 -1007
c-13 -2 -33 -2 -45 0 -13 2 -3 4 22 4 25 0 35 -2 23 -4z m107 -66 c42 -14 170
-94 170 -106 0 -5 -42 -11 -92 -14 -51 -3 -114 -10 -139 -15 -64 -15 -150 -57
-197 -97 l-39 -34 -2 59 c-1 32 3 61 9 65 5 3 10 19 10 35 0 16 8 35 18 42 10
7 27 26 39 41 12 15 24 28 27 28 3 0 11 1 18 4 50 16 114 13 178 -8z m26 -295
c26 -53 -22 -100 -71 -68 -29 19 -32 51 -8 78 23 25 64 20 79 -10z m-679 -464
c-3 -8 -6 -5 -6 6 -1 11 2 17 5 13 3 -3 4 -12 1 -19z m60 -280 c-3 -8 -6 -5
-6 6 -1 11 2 17 5 13 3 -3 4 -12 1 -19z"/>
<path d="M3056 2895 c-94 -16 -220 -56 -296 -93 -65 -32 -80 -62 -59 -124 9
-29 22 -45 46 -56 31 -15 37 -14 150 22 172 56 170 55 273 65 82 7 103 6 155
-11 33 -11 80 -30 104 -44 55 -30 76 -30 97 1 14 22 15 30 3 57 -19 45 -111
133 -172 164 -64 33 -181 40 -301 19z"/>
<path d="M2782 2586 c-90 -49 -102 -70 -122 -211 -9 -61 -15 -217 -10 -267 1
-10 13 -19 31 -23 16 -4 29 -11 29 -16 0 -17 20 -9 21 9 1 11 3 9 8 -7 11 -41
26 -33 27 14 3 94 61 199 144 260 54 39 78 41 43 2 -38 -41 -53 -84 -53 -152
0 -77 19 -122 77 -179 l38 -38 70 6 c88 7 115 15 115 32 0 23 53 64 82 64 34
0 35 -9 7 -44 -32 -41 -11 -46 23 -6 91 106 82 252 -20 346 -45 41 -30 43 44
7 63 -31 134 -102 166 -167 26 -55 38 -58 38 -11 0 46 -28 99 -80 153 -53 54
-117 86 -215 107 -165 34 -359 -16 -474 -122 -25 -24 -49 -43 -52 -43 -10 0
-6 33 8 60 7 14 13 21 13 16 0 -5 19 16 43 45 23 30 53 64 67 75 34 30 60 77
51 92 -14 23 -73 22 -119 -2z m288 -266 c11 -11 20 -28 20 -37 0 -23 -30 -53
-53 -53 -26 0 -57 28 -57 52 0 22 34 58 55 58 8 0 24 -9 35 -20z"/>
<path d="M2240 1816 c-30 -17 -52 -60 -75 -146 -9 -36 -21 -75 -26 -88 -12
-30 -12 -104 0 -135 5 -13 24 -30 43 -37 18 -7 47 -19 63 -25 85 -35 105 -40
165 -39 70 2 131 23 212 76 65 41 92 87 86 143 -11 93 -95 215 -149 215 -16 0
-29 -2 -29 -5 0 -3 16 -28 35 -56 39 -57 46 -109 21 -157 -46 -90 -281 -95
-335 -8 -26 42 -26 61 0 111 29 56 76 103 116 116 40 13 37 19 -14 29 -21 4
-49 10 -63 14 -14 3 -36 0 -50 -8z"/>
<path d="M3160 1375 c0 -14 32 -65 40 -65 13 0 13 13 -2 45 -10 21 -38 36 -38
20z"/>
<path d="M3005 1290 c-16 -5 -97 -13 -180 -19 -97 -6 -192 -19 -269 -37 l-119
-27 -96 17 c-57 10 -149 16 -227 16 -98 0 -139 4 -160 15 -70 36 -118 5 -89
-57 29 -62 70 -125 114 -177 44 -52 45 -61 7 -74 -25 -9 58 -124 112 -155 19
-11 191 -27 277 -26 93 1 214 25 317 64 62 23 143 80 153 107 3 10 26 33 50
51 71 52 215 238 215 278 0 33 -40 42 -105 24z m-74 -131 c15 -24 11 -26 -58
-42 -217 -50 -567 -70 -730 -41 -27 5 -32 10 -31 30 1 13 7 24 13 24 5 1 78 1
160 0 137 -1 364 18 475 40 65 12 160 7 171 -11z m-111 -108 c0 -10 -121 -47
-223 -66 -100 -19 -209 -19 -320 0 -94 17 -149 33 -112 34 220 6 591 28 648
40 4 0 7 -3 7 -8z"/>
<path d="M4210 1644 c0 -8 5 -12 10 -9 6 4 8 11 5 16 -9 14 -15 11 -15 -7z"/>
<path d="M1102 1610 c0 -19 2 -27 5 -17 2 9 2 25 0 35 -3 9 -5 1 -5 -18z"/>
<path d="M1111 1554 c0 -11 3 -14 6 -6 3 7 2 16 -1 19 -3 4 -6 -2 -5 -13z"/>
</g>
</svg>
